<svg width="65" height="65" viewBox="0 0 65 65" fill="none" xmlns="http://www.w3.org/2000/svg">
<path d="M9.77539 47.3014V12.1112C9.78297 11.0158 10.2242 9.96805 11.0024 9.19717C11.7807 8.42629 12.8326 7.99509 13.928 7.99794H10.1194C9.02402 7.99509 7.97209 8.42629 7.19383 9.19717C6.41558 9.96805 5.97438 11.0158 5.9668 12.1112V47.3014C5.97411 48.3969 6.41518 49.445 7.19346 50.2162C7.97174 50.9873 9.02382 51.4187 10.1194 51.4159H13.928C12.8324 51.4187 11.7803 50.9873 11.0021 50.2162C10.2238 49.445 9.78271 48.3969 9.77539 47.3014Z" fill="#D4E1F4"/>
<path d="M54.8807 7.23633H52.6855V5.66541C52.6767 4.5293 52.2188 3.44283 51.4118 2.64306C50.6048 1.8433 49.5143 1.39518 48.3782 1.39649H48.2752C47.7172 1.39814 47.1651 1.51003 46.6505 1.72572C46.136 1.94142 45.6691 2.25666 45.2767 2.65335C44.8843 3.05004 44.5742 3.52034 44.3642 4.03725C44.1541 4.55416 44.0483 5.10748 44.0527 5.66541V7.23633H20.9473V5.66554C20.9473 3.31158 18.9834 1.39649 16.6309 1.39649C14.2783 1.39649 12.3145 3.31158 12.3145 5.66554V7.23633H10.1193C8.82229 7.23482 7.5774 7.74671 6.65661 8.66015C5.73581 9.5736 5.21397 10.8143 5.20508 12.1113V47.3016C5.2138 48.5987 5.73556 49.8397 6.65635 50.7534C7.57715 51.667 8.82214 52.1791 10.1193 52.1777H54.8807C56.1779 52.1791 57.4228 51.667 58.3436 50.7534C59.2644 49.8397 59.7862 48.5987 59.7949 47.3016V12.1113C59.786 10.8143 59.2642 9.5736 58.3434 8.66015C57.4226 7.74671 56.1777 7.23482 54.8807 7.23633ZM45.5762 5.66541C45.5715 5.30748 45.6378 4.95218 45.7712 4.62001C45.9046 4.28784 46.1025 3.98539 46.3535 3.73012C46.6044 3.47486 46.9034 3.27183 47.2333 3.13277C47.5631 2.99371 47.9172 2.92137 48.2752 2.91992H48.3782C49.1103 2.91863 49.8133 3.20626 50.3346 3.72032C50.8558 4.23439 51.1532 4.93336 51.1621 5.66541V10.0293H45.5762V5.66541ZM13.8379 5.66541C13.8379 4.15137 15.1183 2.91992 16.6309 2.91992C18.1434 2.91992 19.4238 4.15137 19.4238 5.66554V10.0293H13.8379V5.66541ZM54.8807 50.6543H10.1193C9.22605 50.6561 8.36831 50.3046 7.73313 49.6766C7.09794 49.0485 6.73682 48.1948 6.72852 47.3016V16.6309H12.0605C12.2626 16.6309 12.4563 16.5506 12.5992 16.4078C12.742 16.2649 12.8223 16.0712 12.8223 15.8691C12.8223 15.6671 12.742 15.4734 12.5992 15.3305C12.4563 15.1877 12.2626 15.1074 12.0605 15.1074H6.72852V12.1113C6.73696 11.2183 7.09816 10.3647 7.73335 9.7369C8.36854 9.10906 9.2262 8.75782 10.1193 8.75977H12.3145V10.7416C12.3218 10.953 12.4084 11.1538 12.5572 11.3041C12.7059 11.4544 12.9058 11.5432 13.1171 11.5527H20.1268C20.3399 11.5439 20.5421 11.4558 20.6939 11.3059C20.8456 11.1559 20.9359 10.9547 20.9473 10.7416V8.75977H44.0527V10.7416C44.0527 11.1624 44.3498 11.5527 44.7704 11.5527H51.8832C52.0944 11.5432 52.2943 11.4544 52.443 11.3041C52.5917 11.1537 52.6783 10.9529 52.6855 10.7416V8.75977H54.8807C55.7738 8.75782 56.6315 9.10906 57.2667 9.7369C57.9018 10.3647 58.263 11.2183 58.2715 12.1113V15.1074H17.1387C16.9367 15.1074 16.7429 15.1877 16.6001 15.3305C16.4572 15.4734 16.377 15.6671 16.377 15.8691C16.377 16.0712 16.4572 16.2649 16.6001 16.4078C16.7429 16.5506 16.9367 16.6309 17.1387 16.6309H58.2715V47.3016C58.2632 48.1948 57.9021 49.0485 57.2669 49.6766C56.6317 50.3046 55.7739 50.6561 54.8807 50.6543Z" fill="#1B8AAD"/>
<path d="M9.14062 18.2812C8.9386 18.2812 8.74486 18.3615 8.60201 18.5044C8.45916 18.6472 8.37891 18.8409 8.37891 19.043V19.6777C8.37891 19.8798 8.45916 20.0735 8.60201 20.2164C8.74486 20.3592 8.9386 20.4395 9.14062 20.4395C9.34265 20.4395 9.53639 20.3592 9.67924 20.2164C9.82209 20.0735 9.90234 19.8798 9.90234 19.6777V19.043C9.90234 18.8409 9.82209 18.6472 9.67924 18.5044C9.53639 18.3615 9.34265 18.2812 9.14062 18.2812Z" fill="#1B8AAD"/>
<path d="M9.14062 21.582C8.9386 21.582 8.74486 21.6623 8.60201 21.8051C8.45916 21.948 8.37891 22.1417 8.37891 22.3438V36.5625C8.37891 36.7645 8.45916 36.9583 8.60201 37.1011C8.74486 37.244 8.9386 37.3242 9.14062 37.3242C9.34265 37.3242 9.53639 37.244 9.67924 37.1011C9.82209 36.9583 9.90234 36.7645 9.90234 36.5625V22.3438C9.90234 22.1417 9.82209 21.948 9.67924 21.8051C9.53639 21.6623 9.34265 21.582 9.14062 21.582Z" fill="#1B8AAD"/>
<path d="M46.8329 41.4084C45.8256 41.4062 44.8538 41.7806 44.1083 42.4581C43.3628 43.1357 42.8975 44.0674 42.8036 45.0703C42.7098 46.0733 42.9943 47.0752 43.6012 47.8792C44.2081 48.6832 45.0936 49.2313 46.0839 49.416V55.9748C46.0839 57.5909 45.4419 59.1409 44.2991 60.2837C43.1563 61.4265 41.6063 62.0685 39.9902 62.0685C38.374 62.0685 36.824 61.4265 35.6812 60.2837C34.5384 59.1409 33.8964 57.5909 33.8964 55.9748V44.8398C36.8401 44.6295 39.6152 43.3872 41.7329 41.3317C43.8506 39.2763 45.1751 36.5395 45.4731 33.6034C45.497 33.3484 45.4673 33.0913 45.3861 32.8485C45.3048 32.6057 45.1737 32.3826 45.0011 32.1934C44.849 32.0095 44.6541 31.8657 44.4335 31.7745V24.0744C44.4321 23.3463 44.1804 22.6408 43.7206 22.0762C43.2609 21.5116 42.6209 21.1223 41.9082 20.9735C41.7354 20.4296 41.3754 19.9644 40.8921 19.6608C40.4088 19.3572 39.8335 19.2347 39.2684 19.3151C38.7034 19.3955 38.1851 19.6736 37.8057 20.1C37.4263 20.5264 37.2103 21.0735 37.1961 21.6441C37.182 22.2147 37.3705 22.7718 37.7283 23.2165C38.086 23.6613 38.5899 23.9648 39.1502 24.0731C39.7106 24.1815 40.2913 24.0877 40.7891 23.8084C41.2868 23.5292 41.6695 23.0825 41.8691 22.5478C42.1755 22.6687 42.4385 22.8789 42.6241 23.1511C42.8097 23.4233 42.9094 23.7449 42.9101 24.0744V31.722C42.5983 31.8454 42.3271 32.0531 42.1267 32.3219C41.9264 32.5907 41.8049 32.9101 41.7759 33.2441C41.5403 35.4189 40.5095 37.43 38.8815 38.8911C37.2536 40.3522 35.1431 41.1604 32.9556 41.1604C30.7681 41.1604 28.6577 40.3522 27.0297 38.8911C25.4017 37.43 24.371 35.4189 24.1354 33.2441C24.1018 32.9083 23.9759 32.5884 23.7717 32.3198C23.5675 32.0511 23.293 31.8442 22.9784 31.722V24.0744C22.9838 23.7427 23.088 23.4202 23.2778 23.1481C23.4675 22.8761 23.7342 22.6668 24.0436 22.5473C24.2434 23.0795 24.6254 23.5237 25.1217 23.801C25.618 24.0784 26.1966 24.1709 26.7546 24.0621C27.3126 23.9534 27.8141 23.6505 28.17 23.2071C28.5258 22.7637 28.7131 22.2086 28.6985 21.6403C28.684 21.0719 28.4685 20.5271 28.0903 20.1026C27.7122 19.678 27.1959 19.4012 26.633 19.3212C26.0701 19.2412 25.4971 19.3633 25.0157 19.6657C24.5343 19.9681 24.1755 20.4313 24.0032 20.973C23.2878 21.1205 22.6445 21.5088 22.1808 22.0732C21.717 22.6376 21.4609 23.3439 21.455 24.0744V31.7746C21.2641 31.8989 21.0841 32.039 20.9167 32.1935C20.7467 32.3837 20.6184 32.6075 20.5402 32.8504C20.462 33.0932 20.4356 33.3498 20.4627 33.6035C20.7846 36.5894 22.1606 39.3628 24.3436 41.4253C26.5267 43.4878 29.3736 44.7043 32.373 44.8562V55.9748C32.373 57.995 33.1755 59.9324 34.604 61.3609C36.0325 62.7894 37.97 63.592 39.9902 63.592C42.0104 63.592 43.9478 62.7894 45.3763 61.3609C46.8048 59.9324 47.6073 57.995 47.6073 55.9748V49.4113C48.594 49.2204 49.474 48.6686 50.0755 47.8635C50.6769 47.0584 50.9566 46.058 50.8598 45.0577C50.763 44.0575 50.2967 43.1292 49.552 42.4544C48.8074 41.7796 47.8379 41.4067 46.8329 41.4086V41.4084ZM39.6101 22.594C39.4349 22.5933 39.2639 22.5407 39.1186 22.4429C38.9733 22.345 38.8602 22.2064 38.7937 22.0443C38.7271 21.8823 38.7101 21.7042 38.7447 21.5325C38.7793 21.3608 38.864 21.2032 38.9881 21.0796C39.1122 20.956 39.2702 20.8719 39.442 20.838C39.6138 20.8041 39.7919 20.8218 39.9536 20.889C40.1154 20.9562 40.2536 21.0698 40.3509 21.2155C40.4481 21.3612 40.5 21.5324 40.5 21.7076C40.4993 21.943 40.4052 22.1685 40.2385 22.3346C40.0717 22.5007 39.8458 22.5938 39.6104 22.5936L39.6101 22.594ZM26.3249 20.821C26.5001 20.8216 26.6711 20.8742 26.8165 20.972C26.9618 21.0698 27.0748 21.2085 27.1414 21.3705C27.208 21.5326 27.225 21.7107 27.1904 21.8824C27.1558 22.0541 27.0711 22.2117 26.947 22.3354C26.8229 22.459 26.6649 22.543 26.4931 22.5769C26.3212 22.6109 26.1432 22.5931 25.9814 22.5259C25.8197 22.4587 25.6814 22.345 25.5842 22.1993C25.487 22.0536 25.4351 21.8824 25.4351 21.7072C25.4358 21.4717 25.5298 21.2461 25.6967 21.08C25.8635 20.9138 26.0895 20.8206 26.3249 20.821ZM21.9897 33.4514C21.9856 33.4088 21.9906 33.3657 22.0042 33.3251C22.0179 33.2845 22.0399 33.2473 22.069 33.2158C22.1002 33.1809 22.1385 33.1531 22.1813 33.1341C22.2241 33.1152 22.2705 33.1055 22.3173 33.1057C22.3981 33.1054 22.4762 33.1352 22.5363 33.1893C22.5964 33.2435 22.6342 33.318 22.6424 33.3984C22.9093 35.9508 24.1122 38.3138 26.0188 40.0315C27.9255 41.7491 30.4008 42.6997 32.9671 42.6997C35.5333 42.6997 38.0086 41.7491 39.9153 40.0315C41.8219 38.3138 43.0248 35.9508 43.2917 33.3984C43.2998 33.318 43.3376 33.2435 43.3977 33.1894C43.4578 33.1353 43.5359 33.1055 43.6167 33.1058C43.6635 33.1056 43.7099 33.1153 43.7527 33.1343C43.7955 33.1532 43.8338 33.181 43.865 33.2159C43.8941 33.2474 43.9161 33.2847 43.9298 33.3253C43.9434 33.3659 43.9483 33.4089 43.9442 33.4515C43.6626 36.1668 42.3846 38.6813 40.3572 40.5092C38.3298 42.3372 35.6968 43.3489 32.967 43.3489C30.2372 43.3489 27.6042 42.3372 25.5768 40.5092C23.5494 38.6813 22.2714 36.1668 21.9897 33.4515V33.4514ZM46.8329 47.9629C46.3357 47.9615 45.8501 47.8127 45.4373 47.5354C45.0246 47.2581 44.7033 46.8647 44.514 46.405C44.3247 45.9452 44.2759 45.4396 44.3738 44.9521C44.4717 44.4646 44.7119 44.017 45.064 43.6659C45.4161 43.3149 45.8644 43.076 46.3521 42.9795C46.8399 42.8831 47.3454 42.9333 47.8046 43.124C48.2638 43.3146 48.6563 43.637 48.9324 44.0506C49.2084 44.4641 49.3558 44.9502 49.3557 45.4474C49.354 46.1153 49.0875 46.7553 48.6145 47.2268C48.1415 47.6984 47.5008 47.9631 46.8329 47.9629Z" fill="#1AE5BE"/>
<path d="M46.833 43.3812C46.4242 43.3807 46.0245 43.5015 45.6843 43.7282C45.3442 43.955 45.079 44.2775 44.9222 44.655C44.7654 45.0325 44.7241 45.4481 44.8036 45.8491C44.883 46.2501 45.0796 46.6185 45.3685 46.9077C45.6573 47.1969 46.0255 47.394 46.4264 47.4739C46.8273 47.5539 47.2429 47.5131 47.6206 47.3568C47.9983 47.2005 48.3212 46.9356 48.5483 46.5958C48.7755 46.2559 48.8967 45.8563 48.8967 45.4475C48.8965 44.9 48.679 44.375 48.2921 43.9876C47.9052 43.6003 47.3805 43.3822 46.833 43.3812ZM46.833 45.9902C46.7255 45.9907 46.6203 45.9593 46.5307 45.9C46.4411 45.8406 46.3711 45.756 46.3296 45.6569C46.2882 45.5577 46.2771 45.4485 46.2977 45.343C46.3184 45.2375 46.3699 45.1406 46.4457 45.0644C46.5216 44.9882 46.6183 44.9363 46.7237 44.9152C46.8291 44.894 46.9384 44.9046 47.0377 44.9457C47.137 44.9867 47.222 45.0563 47.2817 45.1456C47.3415 45.235 47.3733 45.34 47.3733 45.4475C47.3734 45.5911 47.3166 45.7288 47.2153 45.8306C47.1141 45.9323 46.9766 45.9897 46.833 45.9902Z" fill="#1AE5BE"/>
<path d="M26.5332 29.3262V31.8652C26.5332 32.2858 27.0013 32.7539 27.4219 32.7539H30.0879V35.4199C30.0879 35.8405 30.556 36.3086 30.9766 36.3086H34.0234C34.444 36.3086 34.6582 35.8405 34.6582 35.4199V32.7539H37.5781C37.9987 32.7539 38.2129 32.2858 38.2129 31.8652V29.3262C38.2129 28.9056 37.9987 28.6914 37.5781 28.6914H34.6582V25.5176C34.6582 25.097 34.444 24.8828 34.0234 24.8828H30.9766C30.556 24.8828 30.0879 25.097 30.0879 25.5176V28.6914H27.4219C27.0013 28.6914 26.5332 28.9056 26.5332 29.3262ZM28.0566 30.2148H30.9766C31.3972 30.2148 31.6113 29.7468 31.6113 29.3262V26.4062H33.1348V29.3262C33.1348 29.7468 33.6028 30.2148 34.0234 30.2148H36.6895V31.2305H34.0234C33.6028 31.2305 33.1348 31.4446 33.1348 31.8652V34.7852H31.6113V31.8652C31.6113 31.4446 31.3972 31.2305 30.9766 31.2305H28.0566V30.2148Z" fill="#1AE5BE"/>
</svg>
