<svg width="66" height="65" viewBox="0 0 66 65" fill="none" xmlns="http://www.w3.org/2000/svg">
<path d="M6.7366 21.9818C8.00194 15.4096 12.3287 10.9863 18.0776 10.1837C17.4313 10.0962 16.7798 10.0518 16.1274 10.0508C9.43461 10.0508 4.27191 14.6973 2.86941 21.9818C0.765658 32.783 7.52292 47.0995 27.283 54.8233C27.4879 54.8955 27.7024 54.9379 27.9198 54.949C28.1432 54.938 28.3639 54.8957 28.5753 54.8233C29.0072 54.6509 29.4311 54.4745 29.8508 54.2961C11.0957 46.4621 4.67925 32.5423 6.7366 21.9818Z" fill="#D4E1F4"/>
<path d="M39.6491 9.41413C35.9213 9.41413 31.8783 10.8487 27.9268 13.5691C23.9199 10.7284 19.9524 9.28857 16.1276 9.28857C9.07954 9.28857 3.57692 14.2152 2.10933 21.8381C-0.0495967 32.9232 6.80886 47.6407 26.9976 55.5315C27.0105 55.5368 27.0246 55.5417 27.0382 55.5462C27.6052 55.7657 28.2354 55.7657 28.8023 55.5462C28.8178 55.5411 28.8331 55.5356 28.8482 55.5295C37.3425 52.1398 44.1518 47.2563 48.5402 41.4085L47.2961 40.503C43.0809 46.1196 36.5099 50.8243 28.2913 54.108C28.1744 54.1605 28.0474 54.1876 27.9188 54.1875C27.7903 54.1873 27.6634 54.16 27.5465 54.1072C8.19615 46.5356 1.59048 32.5902 3.62874 22.1235C4.28616 18.7123 5.80945 15.8503 8.03605 13.8462C10.242 11.861 13.0401 10.812 16.1276 10.812C19.7568 10.812 23.5689 12.2612 27.4577 15.1193C27.5899 15.2165 27.7502 15.2695 27.9152 15.2706C28.0802 15.2716 28.2412 15.2207 28.3747 15.1252C32.2061 12.3857 36.1047 10.9376 39.6491 10.9376C42.729 10.9376 45.5308 11.9825 47.7518 13.9591C49.9819 15.9441 51.5249 18.7706 52.212 22.1265C53.175 27.0142 52.1561 32.4335 49.3433 37.3862L50.6933 38.1299C53.6839 32.8631 54.763 27.0765 53.7293 21.8304C52.1849 14.288 46.6579 9.41413 39.6491 9.41413Z" fill="#007CA4"/>
<path d="M9.16923 17.1189C9.29539 16.9596 9.35212 16.7574 9.32694 16.5569C9.30176 16.3564 9.19674 16.174 9.03498 16.0497C8.87322 15.9255 8.66797 15.8696 8.46438 15.8944C8.2608 15.9192 8.07555 16.0227 7.94939 16.182C6.57757 17.9144 5.63901 20.054 5.16025 22.5414C4.37921 26.5523 4.9442 30.8732 6.79439 35.0372C6.87855 35.2193 7.03211 35.3615 7.22187 35.4331C7.41163 35.5046 7.62235 35.4997 7.80849 35.4195C7.99463 35.3393 8.14123 35.1901 8.21661 35.0043C8.29199 34.8184 8.2901 34.6109 8.21133 34.4264C6.48708 30.5458 5.95728 26.5354 6.67941 22.8268C7.11266 20.5791 7.95017 18.6583 9.16923 17.1189Z" fill="#007CA4"/>
<path d="M11.6718 13.1257C11.181 13.3721 10.7102 13.6553 10.2637 13.9729C10.1802 14.031 10.1092 14.1048 10.0548 14.1901C10.0005 14.2754 9.96385 14.3705 9.94705 14.4698C9.93024 14.5691 9.93359 14.6707 9.95692 14.7688C9.98024 14.8668 10.0231 14.9593 10.0829 15.041C10.1428 15.1226 10.2185 15.1917 10.3056 15.2444C10.3928 15.297 10.4897 15.3321 10.5907 15.3476C10.6917 15.3631 10.7949 15.3588 10.8942 15.3348C10.9935 15.3108 11.087 15.2677 11.1692 15.2079C11.5512 14.9362 11.9539 14.694 12.3737 14.4833C12.5546 14.3905 12.691 14.2312 12.7532 14.0399C12.8153 13.8486 12.7983 13.6409 12.7058 13.462C12.6133 13.283 12.4527 13.1473 12.2591 13.0843C12.0654 13.0213 11.8544 13.0362 11.6718 13.1257Z" fill="#007CA4"/>
<path d="M59.6018 36.4609C59.0469 36.4608 58.5043 36.6228 58.0428 36.9263C57.5813 37.2299 57.2216 37.6614 57.0092 38.1663C56.7967 38.6713 56.7411 39.2269 56.8493 39.7629C56.9575 40.299 57.2246 40.7914 57.617 41.1779C58.0094 41.5645 58.5094 41.8277 59.0536 41.9343C59.5979 42.041 60.1621 41.9863 60.6749 41.7771C61.1876 41.568 61.6258 41.2138 61.9341 40.7594C62.2424 40.3049 62.407 39.7706 62.407 39.2241C62.4062 38.4916 62.1104 37.7893 61.5845 37.2713C61.0586 36.7533 60.3456 36.4618 59.6018 36.4609ZM59.6018 40.4639C59.3528 40.464 59.1094 40.3914 58.9022 40.2553C58.6951 40.1191 58.5337 39.9255 58.4383 39.699C58.3429 39.4724 58.3179 39.2231 58.3664 38.9826C58.4149 38.742 58.5347 38.5211 58.7108 38.3476C58.8868 38.1742 59.1111 38.056 59.3554 38.0081C59.5996 37.9602 59.8527 37.9847 60.0828 38.0786C60.3129 38.1724 60.5095 38.3313 60.6479 38.5352C60.7862 38.7391 60.8601 38.9788 60.8601 39.2241C60.8599 39.5528 60.7273 39.868 60.4914 40.1005C60.2555 40.3331 59.9356 40.4639 59.6018 40.4644V40.4639Z" fill="#1AE5BE"/>
<path d="M59.6018 34.0133C58.6101 34.0142 57.6387 34.2894 56.798 34.8073C55.9574 35.3253 55.2813 36.0654 54.8467 36.9432H49.2091L45.7304 27.7127C45.5651 27.2588 45.2655 26.8641 44.8704 26.5793C44.4752 26.2945 44.0026 26.1326 43.5133 26.1147C43.0276 26.1058 42.5505 26.2422 42.1452 26.5058C41.7398 26.7694 41.4251 27.1479 41.2426 27.5913L37.4914 36.603L33.3931 22.5577C33.2514 22.0837 32.9632 21.6651 32.5685 21.3602C32.1738 21.0552 31.6923 20.8792 31.1912 20.8565C30.69 20.8338 30.1942 20.9657 29.7728 21.2338C29.3514 21.5019 29.0254 21.8927 28.8403 22.3519L25.1744 31.3573H23.2032C22.9981 31.3573 22.8013 31.4376 22.6563 31.5804C22.5112 31.7233 22.4297 31.917 22.4297 32.119C22.4297 32.3211 22.5112 32.5148 22.6563 32.6576C22.8013 32.8005 22.9981 32.8807 23.2032 32.8807H25.6979C25.8514 32.8832 26.002 32.8399 26.1301 32.7567C26.2582 32.6734 26.3578 32.554 26.4159 32.4141L30.276 22.9252C30.3422 22.759 30.4589 22.6169 30.6102 22.5185C30.7615 22.42 30.94 22.37 31.1212 22.3753C31.2996 22.3829 31.471 22.445 31.6118 22.5532C31.7525 22.6613 31.8555 22.8099 31.9064 22.9784L36.6186 39.1319C36.6629 39.284 36.7541 39.4188 36.8797 39.5175C37.0054 39.6162 37.1591 39.6739 37.3195 39.6826C37.48 39.6913 37.6392 39.6506 37.775 39.5661C37.9109 39.4816 38.0167 39.3576 38.0777 39.2111L42.6738 28.1733C42.7395 28.0151 42.8522 27.8801 42.9971 27.786C43.142 27.6919 43.3124 27.643 43.4859 27.6458C43.8136 27.651 44.1477 27.9096 44.2803 28.2591L47.9456 37.9843C48.0012 38.1285 48.1007 38.2523 48.2306 38.3386C48.3604 38.425 48.5142 38.4697 48.6708 38.4667H54.3685C54.2799 39.0573 54.2954 39.6586 54.4142 40.244H47.5341C47.2001 40.244 46.8599 39.9569 46.7257 39.6023L44.1247 32.6896C44.0708 32.545 43.9742 32.4198 43.8473 32.3299C43.7203 32.2401 43.569 32.1899 43.4127 32.1858C43.2575 32.1825 43.1048 32.2254 42.9748 32.309C42.8448 32.3927 42.7434 32.513 42.6841 32.6544L37.8877 44.1542C37.8158 44.3146 37.6956 44.4494 37.5433 44.5403C37.3911 44.6312 37.2142 44.6738 37.0366 44.6625C36.8589 44.6511 36.6891 44.5863 36.5501 44.4768C36.411 44.3672 36.3096 44.2183 36.2593 44.0501L31.5615 27.9402C31.517 27.7876 31.4251 27.6524 31.2988 27.5537C31.1725 27.455 31.018 27.3976 30.8569 27.3896C30.6959 27.3816 30.5363 27.4234 30.4005 27.5091C30.2648 27.5949 30.1596 27.7203 30.0998 27.8678L27.6049 33.9869C27.5412 34.1455 27.4311 34.2819 27.2885 34.3788C27.1459 34.4757 26.9774 34.5287 26.8042 34.5311H17.4497C17.2275 34.5311 17.0144 34.4442 16.8572 34.2894C16.7001 34.1347 16.6118 33.9248 16.6118 33.7059C16.6118 33.4871 16.7001 33.2772 16.8572 33.1224C17.0144 32.9677 17.2275 32.8807 17.4497 32.8807H18.0469C18.2521 32.8807 18.4488 32.8005 18.5938 32.6576C18.7389 32.5148 18.8204 32.3211 18.8204 32.119C18.8204 31.917 18.7389 31.7233 18.5938 31.5804C18.4488 31.4376 18.2521 31.3573 18.0469 31.3573H17.4497C16.8172 31.3573 16.2107 31.6048 15.7634 32.0452C15.3162 32.4857 15.0649 33.083 15.0649 33.7059C15.0649 34.3288 15.3162 34.9262 15.7634 35.3667C16.2107 35.8071 16.8172 36.0546 17.4497 36.0546H26.8042C27.2862 36.0519 27.7566 35.9077 28.155 35.6405C28.5534 35.3732 28.8618 34.9949 29.0408 34.5541L30.6984 30.4832L34.7726 44.462C34.9111 44.936 35.1957 45.3559 35.5871 45.6635C35.9786 45.9711 36.4575 46.1513 36.9575 46.179C37.0017 46.1814 37.0458 46.1844 37.0897 46.1844C37.5661 46.1881 38.0328 46.0516 38.4299 45.7925C38.8271 45.5333 39.1366 45.1632 39.3188 44.7297L43.3641 35.0316L45.2763 40.1333C45.64 41.0932 46.5475 41.7675 47.5346 41.7675H54.9872C55.4422 42.5679 56.1038 43.2359 56.9051 43.7037C57.7064 44.1716 58.6189 44.4228 59.5503 44.4318C60.4818 44.4409 61.3992 44.2076 62.2097 43.7554C63.0202 43.3033 63.6951 42.6484 64.1661 41.8569C64.6371 41.0655 64.8876 40.1655 64.8922 39.2482C64.8967 38.3308 64.6552 37.4285 64.192 36.6325C63.7289 35.8366 63.0605 35.1752 62.2545 34.7153C61.4486 34.2553 60.5336 34.0132 59.6021 34.0133H59.6018ZM59.6018 42.9127C58.8611 42.9131 58.137 42.6971 57.521 42.2921C56.9049 41.8871 56.4247 41.3113 56.141 40.6375C55.8573 39.9636 55.7828 39.2221 55.9271 38.5066C56.0713 37.7911 56.4278 37.1338 56.9514 36.6179C57.475 36.1019 58.1421 35.7505 58.8685 35.608C59.595 35.4655 60.3479 35.5384 61.0323 35.8174C61.7166 36.0964 62.3016 36.5691 62.7132 37.1755C63.1248 37.782 63.3445 38.495 63.3446 39.2245C63.3436 40.202 62.9491 41.1392 62.2474 41.8305C61.5457 42.5219 60.5943 42.9109 59.6018 42.9123V42.9127Z" fill="#1AE5BE"/>
</svg>
