<svg width="65" height="65" viewBox="0 0 65 65" fill="none" xmlns="http://www.w3.org/2000/svg">
<path d="M18.0273 4.44336H14.2188V8.25195H16.25V8.38652V28.4375H14.2188V33.8965H16.25V57.002H13.457V60.5566H17.2656V57.002H20.0586V33.8965H18.0273V28.4375H20.0586V8.38652V8.25195H18.0273V4.44336Z" fill="#D4E1F4"/>
<path d="M26.2794 23.8596V16.2424C26.2794 15.2492 25.8848 14.2966 25.1824 13.5942C24.4801 12.8919 23.5275 12.4973 22.5342 12.4973C21.541 12.4973 20.5884 12.8919 19.886 13.5942C19.1837 14.2966 18.7891 15.2492 18.7891 16.2424V23.8596C18.7879 23.9595 18.8063 24.0587 18.8435 24.1514C18.8806 24.2442 18.9356 24.3287 19.0054 24.4001C19.0753 24.4716 19.1585 24.5286 19.2503 24.5679C19.3422 24.6071 19.4409 24.6279 19.5408 24.629H25.5684C25.9894 24.629 26.2794 24.2802 26.2794 23.8596ZM22.5553 13.9989C22.8515 13.9969 23.1452 14.0537 23.4192 14.1661C23.6933 14.2786 23.9422 14.4443 24.1517 14.6537C24.3612 14.8632 24.5269 15.1121 24.6394 15.3862C24.7518 15.6602 24.8087 15.9538 24.8067 16.25H20.3024C20.3004 15.9537 20.3574 15.66 20.4699 15.3859C20.5825 15.1117 20.7484 14.8627 20.958 14.6533C21.1676 14.4438 21.4168 14.2781 21.691 14.1658C21.9652 14.0534 22.259 13.9967 22.5553 13.9989ZM20.3126 23.1055V17.7735H24.7559V23.1055H20.3126Z" fill="#007CA4"/>
<path d="M39.4316 24.629H45.4596C45.5595 24.6278 45.6582 24.607 45.75 24.5677C45.8418 24.5285 45.925 24.4715 45.9947 24.4C46.0645 24.3286 46.1195 24.2441 46.1566 24.1513C46.1937 24.0586 46.2122 23.9595 46.2109 23.8596V16.2424C46.2109 15.2492 45.8164 14.2966 45.114 13.5942C44.4117 12.8919 43.4591 12.4973 42.4658 12.4973C41.4726 12.4973 40.52 12.8919 39.8176 13.5942C39.1153 14.2966 38.7207 15.2492 38.7207 16.2424V23.8596C38.7207 24.2802 39.0107 24.629 39.4316 24.629ZM40.2441 23.1055V17.7735H44.6875V23.1055H40.2441ZM42.4458 13.9989C42.742 13.9969 43.0357 14.0537 43.3097 14.1661C43.5838 14.2785 43.8328 14.4442 44.0423 14.6536C44.2518 14.8631 44.4176 15.1121 44.5301 15.3861C44.6425 15.6602 44.6994 15.9538 44.6974 16.25H40.1934C40.1914 15.9538 40.2483 15.6601 40.3608 15.386C40.4734 15.1119 40.6392 14.8629 40.8488 14.6534C41.0583 14.444 41.3074 14.2783 41.5816 14.1659C41.8557 14.0536 42.1495 13.9968 42.4458 13.9989Z" fill="#007CA4"/>
<path d="M29.486 24.629H35.514C35.7202 24.6284 35.9182 24.548 36.0664 24.4045C36.2146 24.261 36.3014 24.0657 36.3086 23.8596V16.2424C36.3086 15.2323 35.9073 14.2636 35.1931 13.5493C34.4788 12.8351 33.5101 12.4338 32.5 12.4338C31.4899 12.4338 30.5212 12.8351 29.8069 13.5493C29.0927 14.2636 28.6914 15.2323 28.6914 16.2424V23.8596C28.6986 24.0657 28.7854 24.261 28.9336 24.4045C29.0817 24.548 29.2798 24.6284 29.486 24.629ZM30.2148 23.1055V17.7735H34.7852V23.1055H30.2148ZM32.5 13.9989C32.7963 13.9968 33.09 14.0536 33.3641 14.1659C33.6383 14.2783 33.8873 14.444 34.0969 14.6535C34.3064 14.8629 34.4723 15.1119 34.5848 15.386C34.6972 15.6601 34.7541 15.9538 34.7521 16.25H30.2479C30.2459 15.9538 30.3028 15.6601 30.4153 15.386C30.5278 15.112 30.6937 14.863 30.9032 14.6535C31.1127 14.4441 31.3618 14.2784 31.6359 14.166C31.91 14.0536 32.2037 13.9968 32.5 13.9989Z" fill="#007CA4"/>
<path d="M35.9277 35.4199H33.8965V33.3887C33.8965 32.9681 33.6823 32.7539 33.2617 32.7539H30.9766C30.556 32.7539 30.0879 32.9681 30.0879 33.3887V35.4199H28.3105C27.89 35.4199 27.4219 35.6341 27.4219 36.0547V38.0859C27.4219 38.5065 27.89 38.9746 28.3105 38.9746H30.0879V40.8789C30.0879 41.2995 30.556 41.7676 30.9766 41.7676H33.2617C33.6823 41.7676 33.8965 41.2995 33.8965 40.8789V38.9746H35.9277C36.3483 38.9746 36.5625 38.5065 36.5625 38.0859V36.0547C36.5625 35.6341 36.3483 35.4199 35.9277 35.4199ZM35.0391 37.4512H33.2617C32.8411 37.4512 32.373 37.6653 32.373 38.0859V40.2441H31.6113V38.0859C31.6113 37.6653 31.3972 37.4512 30.9766 37.4512H28.9453V36.9434H30.9766C31.3972 36.9434 31.6113 36.4753 31.6113 36.0547V34.2773H32.373V36.0547C32.373 36.4753 32.8411 36.9434 33.2617 36.9434H35.0391V37.4512Z" fill="#007CA4"/>
<path d="M19.2969 39.5505C19.0949 39.5505 18.9011 39.6308 18.7583 39.7736C18.6154 39.9165 18.5352 40.1102 18.5352 40.3123V47.8867C18.5352 48.0887 18.6154 48.2824 18.7583 48.4253C18.9011 48.5681 19.0949 48.6484 19.2969 48.6484C19.4989 48.6484 19.6926 48.5681 19.8355 48.4253C19.9783 48.2824 20.0586 48.0887 20.0586 47.8867V40.3123C20.0586 40.1102 19.9783 39.9165 19.8355 39.7736C19.6926 39.6308 19.4989 39.5505 19.2969 39.5505Z" fill="#007CA4"/>
<path d="M19.2969 36.269C19.0949 36.269 18.9011 36.3493 18.7583 36.4921C18.6154 36.635 18.5352 36.8287 18.5352 37.0308V37.7108C18.5352 37.9129 18.6154 38.1066 18.7583 38.2495C18.9011 38.3923 19.0949 38.4726 19.2969 38.4726C19.4989 38.4726 19.6926 38.3923 19.8355 38.2495C19.9783 38.1066 20.0586 37.9129 20.0586 37.7108V37.0308C20.0586 36.8287 19.9783 36.635 19.8355 36.4921C19.6926 36.3493 19.4989 36.269 19.2969 36.269Z" fill="#007CA4"/>
<path d="M62.8418 28.9453H50.9082V30.4687H62.0801V32.373H50.7812V33.8965H62.0801V59.7949H2.91992V33.8965H14.2188V32.373H2.91992V30.4687H14.2188V28.9453H2.1582C1.73761 28.9453 1.39648 29.226 1.39648 29.6466V60.5783C1.39693 60.6772 1.41709 60.775 1.4558 60.8661C1.49451 60.9571 1.55098 61.0394 1.62192 61.1083C1.69285 61.1772 1.77682 61.2313 1.8689 61.2674C1.96098 61.3034 2.05934 61.3208 2.1582 61.3184H62.8418C62.9407 61.3208 63.039 61.3034 63.1311 61.2674C63.2232 61.2313 63.3071 61.1772 63.3781 61.1083C63.449 61.0394 63.5055 60.9571 63.5442 60.8661C63.5829 60.775 63.6031 60.6772 63.6035 60.5783V29.6466C63.6035 29.226 63.2624 28.9453 62.8418 28.9453Z" fill="#1AE5BE"/>
<path d="M8.75977 36.5625C8.75977 36.3605 8.67951 36.1667 8.53666 36.0239C8.39381 35.881 8.20007 35.8008 7.99805 35.8008H4.57031C4.36829 35.8008 4.17455 35.881 4.0317 36.0239C3.88885 36.1667 3.80859 36.3605 3.80859 36.5625V40.1172C3.80859 40.3192 3.88885 40.513 4.0317 40.6558C4.17455 40.7987 4.36829 40.8789 4.57031 40.8789H7.99805C8.20007 40.8789 8.39381 40.7987 8.53666 40.6558C8.67951 40.513 8.75977 40.3192 8.75977 40.1172V36.5625ZM7.23633 39.4824H5.33203V37.3242H7.23633V39.4824Z" fill="#1AE5BE"/>
<path d="M8.75977 42.9102C8.75977 42.7081 8.67951 42.5144 8.53666 42.3715C8.39381 42.2287 8.20007 42.1484 7.99805 42.1484H4.57031C4.36829 42.1484 4.17455 42.2287 4.0317 42.3715C3.88885 42.5144 3.80859 42.7081 3.80859 42.9102V46.4648C3.80859 46.6669 3.88885 46.8606 4.0317 47.0035C4.17455 47.1463 4.36829 47.2266 4.57031 47.2266H7.99805C8.20007 47.2266 8.39381 47.1463 8.53666 47.0035C8.67951 46.8606 8.75977 46.6669 8.75977 46.4648V42.9102ZM7.23633 45.7031H5.33203V43.6719H7.23633V45.7031Z" fill="#1AE5BE"/>
<path d="M8.75977 49.1309C8.75977 48.9288 8.67951 48.7351 8.53666 48.5922C8.39381 48.4494 8.20007 48.3691 7.99805 48.3691H4.57031C4.36829 48.3691 4.17455 48.4494 4.0317 48.5922C3.88885 48.7351 3.80859 48.9288 3.80859 49.1309V52.6855C3.80859 52.8876 3.88885 53.0813 4.0317 53.2242C4.17455 53.367 4.36829 53.4473 4.57031 53.4473H7.99805C8.20007 53.4473 8.39381 53.367 8.53666 53.2242C8.67951 53.0813 8.75977 52.8876 8.75977 52.6855V49.1309ZM7.23633 51.9238H5.33203V49.8926H7.23633V51.9238Z" fill="#1AE5BE"/>
<path d="M14.8535 36.5625C14.8535 36.3605 14.7733 36.1667 14.6304 36.0239C14.4876 35.881 14.2938 35.8008 14.0918 35.8008H10.6641C10.462 35.8008 10.2683 35.881 10.1254 36.0239C9.9826 36.1667 9.90234 36.3605 9.90234 36.5625V40.1172C9.90234 40.3192 9.9826 40.513 10.1254 40.6558C10.2683 40.7987 10.462 40.8789 10.6641 40.8789H14.0918C14.2938 40.8789 14.4876 40.7987 14.6304 40.6558C14.7733 40.513 14.8535 40.3192 14.8535 40.1172V36.5625ZM13.3301 39.4824H11.4258V37.3242H13.3301V39.4824Z" fill="#1AE5BE"/>
<path d="M14.8535 42.9102C14.8535 42.7081 14.7733 42.5144 14.6304 42.3715C14.4876 42.2287 14.2938 42.1484 14.0918 42.1484H10.6641C10.462 42.1484 10.2683 42.2287 10.1254 42.3715C9.9826 42.5144 9.90234 42.7081 9.90234 42.9102V46.4648C9.90234 46.6669 9.9826 46.8606 10.1254 47.0035C10.2683 47.1463 10.462 47.2266 10.6641 47.2266H14.0918C14.2938 47.2266 14.4876 47.1463 14.6304 47.0035C14.7733 46.8606 14.8535 46.6669 14.8535 46.4648V42.9102ZM13.3301 45.7031H11.4258V43.6719H13.3301V45.7031Z" fill="#1AE5BE"/>
<path d="M14.8535 49.1309C14.8535 48.9288 14.7733 48.7351 14.6304 48.5922C14.4876 48.4494 14.2938 48.3691 14.0918 48.3691H10.6641C10.462 48.3691 10.2683 48.4494 10.1254 48.5922C9.9826 48.7351 9.90234 48.9288 9.90234 49.1309V52.6855C9.90234 52.8876 9.9826 53.0813 10.1254 53.2242C10.2683 53.367 10.462 53.4473 10.6641 53.4473H14.0918C14.2938 53.4473 14.4876 53.367 14.6304 53.2242C14.7733 53.0813 14.8535 52.8876 14.8535 52.6855V49.1309ZM13.3301 51.9238H11.4258V49.8926H13.3301V51.9238Z" fill="#1AE5BE"/>
<path d="M55.0977 36.5625C55.0977 36.3605 55.0174 36.1667 54.8746 36.0239C54.7317 35.881 54.538 35.8008 54.3359 35.8008H50.9082C50.7062 35.8008 50.5124 35.881 50.3696 36.0239C50.2267 36.1667 50.1465 36.3605 50.1465 36.5625V40.1172C50.1465 40.3192 50.2267 40.513 50.3696 40.6558C50.5124 40.7987 50.7062 40.8789 50.9082 40.8789H54.3359C54.538 40.8789 54.7317 40.7987 54.8746 40.6558C55.0174 40.513 55.0977 40.3192 55.0977 40.1172V36.5625ZM53.5742 39.4824H51.6699V37.3242H53.5742V39.4824Z" fill="#1AE5BE"/>
<path d="M55.0977 42.9102C55.0977 42.7081 55.0174 42.5144 54.8746 42.3715C54.7317 42.2287 54.538 42.1484 54.3359 42.1484H50.9082C50.7062 42.1484 50.5124 42.2287 50.3696 42.3715C50.2267 42.5144 50.1465 42.7081 50.1465 42.9102V46.4648C50.1465 46.6669 50.2267 46.8606 50.3696 47.0035C50.5124 47.1463 50.7062 47.2266 50.9082 47.2266H54.3359C54.538 47.2266 54.7317 47.1463 54.8746 47.0035C55.0174 46.8606 55.0977 46.6669 55.0977 46.4648V42.9102ZM53.5742 45.7031H51.6699V43.6719H53.5742V45.7031Z" fill="#1AE5BE"/>
<path d="M55.0977 49.1309C55.0977 48.9288 55.0174 48.7351 54.8746 48.5922C54.7317 48.4494 54.538 48.3691 54.3359 48.3691H50.9082C50.7062 48.3691 50.5124 48.4494 50.3696 48.5922C50.2267 48.7351 50.1465 48.9288 50.1465 49.1309V52.6855C50.1465 52.8876 50.2267 53.0813 50.3696 53.2242C50.5124 53.367 50.7062 53.4473 50.9082 53.4473H54.3359C54.538 53.4473 54.7317 53.367 54.8746 53.2242C55.0174 53.0813 55.0977 52.8876 55.0977 52.6855V49.1309ZM53.5742 51.9238H51.6699V49.8926H53.5742V51.9238Z" fill="#1AE5BE"/>
<path d="M61.1914 36.5625C61.1914 36.3605 61.1112 36.1667 60.9683 36.0239C60.8255 35.881 60.6317 35.8008 60.4297 35.8008H57.002C56.7999 35.8008 56.6062 35.881 56.4633 36.0239C56.3205 36.1667 56.2402 36.3605 56.2402 36.5625V40.1172C56.2402 40.3192 56.3205 40.513 56.4633 40.6558C56.6062 40.7987 56.7999 40.8789 57.002 40.8789H60.4297C60.6317 40.8789 60.8255 40.7987 60.9683 40.6558C61.1112 40.513 61.1914 40.3192 61.1914 40.1172V36.5625ZM57.7637 37.3242H59.668V39.4824H57.7637V37.3242Z" fill="#1AE5BE"/>
<path d="M61.1914 42.9102C61.1914 42.7081 61.1112 42.5144 60.9683 42.3715C60.8255 42.2287 60.6317 42.1484 60.4297 42.1484H57.002C56.7999 42.1484 56.6062 42.2287 56.4633 42.3715C56.3205 42.5144 56.2402 42.7081 56.2402 42.9102V46.4648C56.2402 46.6669 56.3205 46.8606 56.4633 47.0035C56.6062 47.1463 56.7999 47.2266 57.002 47.2266H60.4297C60.6317 47.2266 60.8255 47.1463 60.9683 47.0035C61.1112 46.8606 61.1914 46.6669 61.1914 46.4648V42.9102ZM57.7637 43.6719H59.668V45.7031H57.7637V43.6719Z" fill="#1AE5BE"/>
<path d="M61.1914 49.1309C61.1914 48.9288 61.1112 48.7351 60.9683 48.5922C60.8255 48.4494 60.6317 48.3691 60.4297 48.3691H57.002C56.7999 48.3691 56.6062 48.4494 56.4633 48.5922C56.3205 48.7351 56.2402 48.9288 56.2402 49.1309V52.6855C56.2402 52.8876 56.3205 53.0813 56.4633 53.2242C56.6062 53.367 56.7999 53.4473 57.002 53.4473H60.4297C60.6317 53.4473 60.8255 53.367 60.9683 53.2242C61.1112 53.0813 61.1914 52.8876 61.1914 52.6855V49.1309ZM57.7637 49.8926H59.668V51.9238H57.7637V49.8926Z" fill="#1AE5BE"/>
<path d="M51.5401 56.2402H49.5117V34.6582H50.7768C50.9798 34.6576 51.1744 34.5767 51.3179 34.4331C51.4615 34.2896 51.5424 34.095 51.543 33.892V28.48C51.5424 28.2669 51.4574 28.0627 51.3067 27.912C51.156 27.7613 50.9518 27.6764 50.7387 27.6758H49.5117V9.01367H50.7768C51.1975 9.01367 51.543 8.73437 51.543 8.31314V4.42165C51.5421 4.32251 51.5214 4.22456 51.4823 4.13348C51.4431 4.04241 51.3862 3.96004 51.3149 3.89117C51.2436 3.82229 51.1593 3.7683 51.0669 3.73233C50.9745 3.69635 50.8759 3.67912 50.7768 3.68164H14.2232C14.1241 3.67912 14.0255 3.69635 13.9331 3.73233C13.8407 3.7683 13.7564 3.82229 13.6851 3.89117C13.6138 3.96004 13.5569 4.04241 13.5178 4.13348C13.4786 4.22456 13.458 4.32251 13.457 4.42165V8.31314C13.457 8.73437 13.8025 9.01367 14.2232 9.01367H15.4883V27.6758H14.2232C14.0202 27.6764 13.8257 27.7573 13.6821 27.9008C13.5386 28.0444 13.4576 28.2389 13.457 28.4419V33.8952C13.457 34.0976 13.5374 34.2916 13.6805 34.4347C13.8236 34.5778 14.0177 34.6582 14.22 34.6582H15.4883V56.2402H13.46C13.2534 56.2498 13.0585 56.3389 12.916 56.4888C12.7735 56.6386 12.6944 56.8378 12.6953 57.0446V59.7949H14.2188V57.7637H50.7813V59.7949H52.3047V57.0446C52.3056 56.8378 52.2265 56.6386 52.084 56.4888C51.9415 56.3389 51.7467 56.2498 51.5401 56.2402ZM50.0195 33.1348H39.1515C38.5819 32.0691 37.765 31.1557 36.7695 30.4709C35.774 29.7861 34.6288 29.35 33.4299 29.1992H50.0195V33.1348ZM38.5186 36.6894C38.5171 37.8795 38.1628 39.0424 37.5006 40.0311C36.8383 41.0199 35.8978 41.7901 34.798 42.2445C33.6981 42.6988 32.4882 42.8169 31.3212 42.5838C30.1542 42.3508 29.0825 41.7769 28.2415 40.9349C27.4006 40.0929 26.8281 39.0205 26.5965 37.8532C26.3649 36.6859 26.4845 35.4762 26.9403 34.3769C27.396 33.2775 28.1675 32.338 29.1571 31.677C30.1466 31.016 31.31 30.6632 32.5 30.6632C34.0967 30.6661 35.6271 31.3021 36.7554 32.4319C37.8837 33.5616 38.5178 35.0928 38.5186 36.6894ZM14.9805 5.20507H50.0195V7.49023H14.9805V5.20507ZM14.9805 29.1992H18.7891C18.9911 29.1992 19.1848 29.119 19.3277 28.9761C19.4705 28.8333 19.5508 28.6395 19.5508 28.4375C19.5508 28.2355 19.4705 28.0417 19.3277 27.8989C19.1848 27.756 18.9911 27.6758 18.7891 27.6758H17.0117V9.01367H47.9883V27.6758H23.8672C23.6652 27.6758 23.4714 27.756 23.3286 27.8989C23.1857 28.0417 23.1055 28.2355 23.1055 28.4375C23.1055 28.6395 23.1857 28.8333 23.3286 28.9761C23.4714 29.119 23.6652 29.1992 23.8672 29.1992H31.5701C30.3712 29.35 29.226 29.7861 28.2305 30.4709C27.235 31.1557 26.4182 32.0691 25.8486 33.1348H14.9805V29.1992ZM17.0117 34.6582H25.2375C24.9235 35.7791 24.8733 36.9575 25.0907 38.1011C25.3081 39.2447 25.7872 40.3224 26.4906 41.2499C27.194 42.1774 28.1026 42.9295 29.1451 43.4473C30.1877 43.9651 31.3359 44.2346 32.5 44.2346C33.6641 44.2346 34.8123 43.9651 35.8549 43.4473C36.8975 42.9295 37.806 42.1774 38.5094 41.2499C39.2128 40.3224 39.692 39.2447 39.9094 38.1011C40.1267 36.9575 40.0765 35.7791 39.7625 34.6582H47.9883V56.2402H42.1485V45.9752C42.1484 45.7709 42.0682 45.5748 41.9251 45.429C41.7821 45.2832 41.5875 45.1993 41.3833 45.1953H23.6167C23.4125 45.1993 23.218 45.2832 23.0749 45.429C22.9318 45.5748 22.8517 45.7709 22.8516 45.9752V56.2402H17.0117V34.6582ZM40.625 56.2402H24.375V46.7187H40.625V56.2402Z" fill="#007CA4"/>
</svg>
