<svg width="65" height="65" viewBox="0 0 65 65" fill="none" xmlns="http://www.w3.org/2000/svg">
<path d="M5.9668 57.2178V39.7363H2.1582V57.2178C2.1582 59.2617 3.7959 60.9248 5.83984 60.9375H9.64844C7.60449 60.9248 5.9668 59.2617 5.9668 57.2178Z" fill="#D4E1F4"/>
<path d="M40.2695 50.0195H30.8496C30.4307 50.0195 30.0879 50.3623 30.0879 50.7812C30.0879 51.2002 30.4307 51.543 30.8496 51.543H40.333C41.3994 51.543 42.2754 52.3809 42.3135 53.46C42.3516 54.5771 41.3994 55.4785 40.2949 55.4785H24.667C23.6006 55.4785 22.7246 54.6406 22.6865 53.5742C22.6484 52.457 23.6006 51.543 24.7051 51.543H25.7588C26.1777 51.543 26.5205 51.2002 26.5205 50.7812C26.5205 50.3623 26.1777 50.0195 25.7588 50.0195H24.6543C22.7246 50.0195 21.1631 51.5811 21.1504 53.5107V53.5869C21.1885 55.4912 22.8008 57.002 24.7051 57.002H40.3203C42.25 57.002 43.8115 55.4404 43.8242 53.5107C43.8242 53.4854 43.8242 53.46 43.8242 53.4346C43.7988 51.5176 42.1865 50.0195 40.2695 50.0195Z" fill="#007CA4"/>
<path d="M17.1387 6.32227C16.7197 6.32227 16.377 6.66504 16.377 7.08398V7.46484C16.377 7.88379 16.7197 8.22656 17.1387 8.22656C17.5576 8.22656 17.9004 7.88379 17.9004 7.46484V7.08398C17.9004 6.66504 17.5576 6.32227 17.1387 6.32227Z" fill="#1AE5BE"/>
<path d="M17.1387 8.84863C16.7197 8.84863 16.377 9.19141 16.377 9.61035V21.252C16.377 21.6709 16.7197 22.0137 17.1387 22.0137C17.5576 22.0137 17.9004 21.6709 17.9004 21.252V9.61035C17.9004 9.19141 17.5576 8.84863 17.1387 8.84863Z" fill="#1AE5BE"/>
<path d="M36.9434 25.5176H34.4043V22.7246C34.4043 22.3057 34.1885 22.0898 33.7695 22.0898H30.9766C30.5576 22.0898 30.0879 22.3057 30.0879 22.7246V25.5176H27.6758C27.2568 25.5176 26.7871 25.7334 26.7871 26.1523V28.6914C26.7871 29.1104 27.2568 29.5801 27.6758 29.5801H30.0879V31.9922C30.0879 32.4111 30.5576 32.8809 30.9766 32.8809H33.7695C34.1885 32.8809 34.4043 32.4111 34.4043 31.9922V29.5801H36.9434C37.3623 29.5801 37.5781 29.1104 37.5781 28.6914V26.1523C37.5781 25.7334 37.3623 25.5176 36.9434 25.5176ZM36.0547 28.0566H33.7695C33.3506 28.0566 32.8809 28.2725 32.8809 28.6914V31.3574H31.6113V28.6914C31.6113 28.2725 31.3955 28.0566 30.9766 28.0566H28.3105V27.041H30.9766C31.3955 27.041 31.6113 26.5713 31.6113 26.1523V23.6133H32.8809V26.1523C32.8809 26.5713 33.3506 27.041 33.7695 27.041H36.0547V28.0566Z" fill="#1AE5BE"/>
<path d="M32.5 16.4912C26.6221 16.4912 21.8486 21.29 21.8486 27.1807C21.8486 33.0713 26.6221 37.8701 32.5 37.8701C38.3779 37.8701 43.1514 33.0713 43.1514 27.1807C43.1514 21.29 38.3779 16.4912 32.5 16.4912ZM32.5 36.334C27.4727 36.334 23.3721 32.2207 23.3721 27.168C23.3721 22.1279 27.46 18.04 32.5 18.04C37.54 18.04 41.6279 22.1279 41.6279 27.168C41.6279 32.2207 37.5273 36.334 32.5 36.334Z" fill="#1AE5BE"/>
<path d="M63.54 39.4062L57.0146 24.1211C56.1133 22.001 54.0312 20.6045 51.7334 20.5791L50.6797 20.5664L50.6543 22.0898L51.708 22.1025C53.4092 22.1279 54.9453 23.1562 55.6182 24.7178L61.6992 38.9365H44.916C42.7197 38.9365 40.9424 40.7266 40.9424 42.9229C40.9424 44.2812 39.8379 45.3857 38.4922 45.3857H26.5332C25.1748 45.3857 24.083 44.2812 24.083 42.9229C24.083 40.7266 22.293 38.9365 20.1094 38.9365H3.31348L9.39453 24.7178C10.0674 23.1562 11.6035 22.1279 13.3047 22.1025L14.4092 22.0898L14.3838 20.5664L13.2793 20.5791C10.9688 20.6172 8.89941 22.001 7.99805 24.1211L1.45996 39.4062C1.42187 39.4951 1.39648 39.5967 1.39648 39.7109V57.2178C1.39648 59.668 3.38965 61.6611 5.83984 61.6611H59.1602C61.6104 61.6611 63.6035 59.668 63.6035 57.2178V39.7109C63.6035 39.5967 63.5781 39.4951 63.54 39.4062ZM62.0801 57.2178C62.0801 58.8301 60.7725 60.1377 59.1602 60.1377H5.83984C4.22754 60.1377 2.91992 58.8301 2.91992 57.2178V40.4727H20.084C21.4424 40.4727 22.5342 41.5772 22.5342 42.9355C22.5342 45.1318 24.3242 46.9219 26.5078 46.9219H38.4668C40.6631 46.9219 42.4404 45.1318 42.4404 42.9355C42.4404 41.5772 43.5449 40.4727 44.8906 40.4727H62.0801V57.2178Z" fill="#007CA4"/>
<path d="M51.0859 11.7305L42.6816 3.5293C42.542 3.38965 42.3516 3.30078 42.1484 3.30078H14.4092C13.9902 3.30078 13.7109 3.66895 13.7109 4.10059V38.9746H15.2344V4.82422H41.3867V12.3018C41.3867 12.7207 41.7295 13.0635 42.1611 13.0762H49.7656V38.9746H51.2891V12.2891C51.3018 12.0859 51.2256 11.8828 51.0859 11.7305ZM42.9102 11.5527V5.90332L48.7246 11.5527H42.9102Z" fill="#1AE5BE"/>
</svg>
