<svg width="65" height="65" viewBox="0 0 65 65" fill="none" xmlns="http://www.w3.org/2000/svg">
<path d="M12.3805 34.5312H12.3792C7.78223 34.5312 4.0625 38.3018 4.0625 42.9038V56.4941H7.87109V42.9038C7.87109 38.3018 11.5908 34.5312 16.1878 34.5312H12.3805Z" fill="#D4E1F4"/>
<path d="M36.5204 33.7695H30.0879V30.7586C30.9521 29.9526 31.6431 28.9789 32.1186 27.897C32.594 26.8151 32.8441 25.6477 32.8534 24.466C32.8534 24.4591 32.8433 24.452 32.8432 24.4452L32.8217 23.8424C33.4057 24.0926 34.0099 24.3305 34.6399 24.5533C34.7212 24.5823 34.8068 24.597 34.8931 24.597C35.0535 24.597 35.2101 24.5483 35.3422 24.4574C35.443 24.3875 35.5256 24.2946 35.5833 24.1864C35.6409 24.0783 35.672 23.9579 35.6738 23.8353V16.9037C35.6711 15.0497 35.1902 13.2278 34.2775 11.614C33.3649 10.0002 32.0514 8.64919 30.4639 7.69143C30.5625 6.9029 30.4923 6.10242 30.2579 5.34311C30.0235 4.5838 29.6303 3.88301 29.1044 3.28726C28.5785 2.69151 27.9319 2.21441 27.2075 1.88763C26.4831 1.56084 25.6975 1.39185 24.9029 1.39185C24.1082 1.39185 23.3226 1.56084 22.5983 1.88763C21.8739 2.21441 21.2273 2.69151 20.7014 3.28726C20.1755 3.88301 19.7823 4.5838 19.5479 5.34311C19.3135 6.10242 19.2432 6.9029 19.3418 7.69143L18.5188 8.22464C17.1512 9.22227 16.0377 10.5279 15.2686 12.0359C14.4995 13.5439 14.0964 15.2119 14.0918 16.9047V18.2518C14.0999 19.1244 14.2583 19.9892 14.56 20.8081C14.292 21.1006 14.107 21.4594 14.0242 21.8474C13.9414 22.2354 13.9638 22.6385 14.0891 23.0149C14.2144 23.3913 14.438 23.7274 14.7368 23.9884C15.0357 24.2494 15.3988 24.4258 15.7887 24.4993C15.8029 25.7282 16.0777 26.9401 16.5949 28.055C17.1121 29.1699 17.86 30.1624 18.7891 30.9669V33.7695H12.3797C7.36912 33.7695 3.30078 37.8896 3.30078 42.9034V56.5436C3.30091 56.6407 3.32081 56.7367 3.35927 56.8258C3.39773 56.9149 3.45394 56.9952 3.52448 57.0618C3.59501 57.1285 3.67838 57.1801 3.76951 57.2134C3.86064 57.2468 3.95761 57.2612 4.0545 57.2558H36.5625V55.7324H18.7154L18.7653 49.6866C18.7791 47.8716 19.3692 46.1078 20.4504 44.6499C21.5317 43.192 23.0483 42.1154 24.7813 41.5755C26.2105 41.4975 27.556 40.8763 28.5425 39.839C29.5289 38.8018 30.0817 37.4268 30.0879 35.9954V35.2929H36.5204C37.6132 35.2966 38.6924 35.5366 39.6838 35.9966C40.6752 36.4565 41.5553 37.1255 42.2638 37.9576L43.4206 36.9559C42.5686 35.9582 41.5107 35.1568 40.3196 34.6068C39.1284 34.0568 37.8323 33.7711 36.5204 33.7695ZM24.8975 2.9199C25.9694 2.92177 26.9975 3.34508 27.76 4.09846C28.5224 4.85183 28.958 5.87483 28.9727 6.9466C26.3617 5.87422 23.4333 5.87339 20.8216 6.94431C20.8369 5.87281 21.2728 4.85028 22.0354 4.09738C22.7979 3.34447 23.8259 2.92156 24.8975 2.9199ZM24.9102 7.66515C27.3597 7.66858 29.7079 8.64311 31.44 10.3751C33.1721 12.1071 34.1468 14.4552 34.1504 16.9047V22.7364C28.3106 20.4491 24.8421 16.8818 22.8618 14.2211C21.6748 12.6487 20.7045 10.9239 19.977 9.093C21.4525 8.15831 23.1636 7.66306 24.9102 7.66515ZM15.6152 16.9047C15.6191 15.6112 15.8944 14.3329 16.4234 13.1525C16.9523 11.9721 17.7232 10.9159 18.686 10.0521C19.3626 11.6505 20.2127 13.1697 21.221 14.5824C20.2379 14.8766 19.3052 15.318 18.4545 15.8918C17.7688 16.3497 17.1854 16.9446 16.741 17.6392C16.2966 18.3337 16.0009 19.1127 15.8724 19.9272C15.709 19.3833 15.6225 18.8192 15.6152 18.2514V16.9047ZM17.2419 49.6742L17.1919 55.7324H11.9336V48.1302C11.9336 47.9282 11.8533 47.7344 11.7105 47.5916C11.5676 47.4487 11.3739 47.3685 11.1719 47.3685C10.9699 47.3685 10.7761 47.4487 10.6333 47.5916C10.4904 47.7344 10.4102 47.9282 10.4102 48.1302V55.7324H4.82422V42.9034C4.82422 38.7297 8.20917 35.2929 12.3802 35.2929H18.7891V35.9954C18.7965 37.0743 19.1144 38.1283 19.7049 39.0313C20.2953 39.9344 21.1332 40.6484 22.1185 41.088C20.6339 41.9767 19.4045 43.2345 18.5499 44.7391C17.6954 46.2437 17.2448 47.9439 17.2419 49.6742ZM28.5645 35.9954C28.5645 38.2441 26.6855 40.0735 24.4385 40.0735C22.1914 40.0735 20.3125 38.2441 20.3125 35.9954V31.9957C21.553 32.6305 22.9249 32.9659 24.3184 32.9752C25.8053 32.9723 27.2669 32.5896 28.5645 31.8633V35.9954ZM24.3513 31.4505C22.5023 31.4469 20.7305 30.7091 19.4255 29.3993C18.1205 28.0895 17.3893 26.3149 17.3926 24.466V23.7693C17.3839 23.56 17.2959 23.3618 17.1465 23.2149C16.9971 23.0681 16.7974 22.9835 16.588 22.9785H16.2009C16.0157 22.9785 15.8381 22.9049 15.7071 22.774C15.5762 22.643 15.5026 22.4654 15.5026 22.2803C15.5026 22.0951 15.5762 21.9175 15.7071 21.7865C15.8381 21.6556 16.0157 21.582 16.2009 21.582H16.588C16.6868 21.5845 16.7852 21.5672 16.8773 21.5311C16.9694 21.4951 17.0533 21.441 17.1243 21.3721C17.1952 21.3032 17.2517 21.2208 17.2904 21.1298C17.3291 21.0388 17.3492 20.941 17.3497 20.8421C17.346 20.1124 17.5229 19.3932 17.8647 18.7484C18.2064 18.1037 18.7024 17.5535 19.3083 17.1469C20.1929 16.5499 21.1815 16.1236 22.2229 15.8901C24.6836 18.9245 27.7707 21.3917 31.273 23.1227L31.3101 24.4743C31.3111 26.3218 30.5789 28.0943 29.2741 29.4024C27.9694 30.7105 26.1988 31.4474 24.3513 31.4511V31.4505Z" fill="#007CA4"/>
<path d="M7.74414 46.7659C7.54212 46.7659 7.34837 46.8461 7.20552 46.989C7.06267 47.1318 6.98242 47.3256 6.98242 47.5276V48.1455C6.98242 48.3475 7.06267 48.5412 7.20552 48.6841C7.34837 48.8269 7.54212 48.9072 7.74414 48.9072C7.94616 48.9072 8.13991 48.8269 8.28276 48.6841C8.42561 48.5412 8.50586 48.3475 8.50586 48.1455V47.5276C8.50586 47.3256 8.42561 47.1318 8.28276 46.989C8.13991 46.8461 7.94616 46.7659 7.74414 46.7659Z" fill="#007CA4"/>
<path d="M11.6558 36.8344C10.3006 37.2539 9.11552 38.0967 8.27443 39.2391C7.43334 40.3815 6.98052 41.7634 6.98243 43.182V45.2614C6.98243 45.4634 7.06268 45.6572 7.20553 45.8C7.34838 45.9429 7.54213 46.0231 7.74415 46.0231C7.94617 46.0231 8.13991 45.9429 8.28276 45.8C8.42561 45.6572 8.50587 45.4634 8.50587 45.2614V43.1824C8.50487 42.0884 8.85444 41.0228 9.5033 40.142C10.1522 39.2612 11.0662 38.6114 12.1113 38.288C12.2071 38.2584 12.2961 38.2101 12.3733 38.146C12.4504 38.0819 12.5141 38.0032 12.5607 37.9144C12.6073 37.8256 12.6359 37.7285 12.6449 37.6286C12.6539 37.5287 12.6431 37.428 12.6131 37.3324C12.583 37.2367 12.5344 37.1479 12.47 37.071C12.4056 36.9941 12.3266 36.9308 12.2377 36.8845C12.1487 36.8382 12.0515 36.81 11.9516 36.8014C11.8516 36.7928 11.751 36.804 11.6554 36.8344H11.6558Z" fill="#007CA4"/>
<path d="M47.8613 59.2602C48.768 59.2595 49.6375 58.8998 50.2798 58.2599C50.9221 57.62 51.285 56.7518 51.2891 55.8452V43.8082C51.9238 43.4192 52.4316 42.6957 52.4316 41.8671V40.8614C52.4316 40.4407 52.0487 40.1172 51.6282 40.1172H43.9578C43.7542 40.112 43.5568 40.1871 43.4082 40.3264C43.2597 40.4657 43.1719 40.6579 43.1641 40.8614V41.8671C43.1642 42.2876 43.2835 42.6994 43.5082 43.0548C43.7329 43.4102 44.0538 43.6946 44.4336 43.875V55.8455C44.4378 56.7521 44.8007 57.6202 45.443 58.2601C46.0853 58.8999 46.9547 59.2595 47.8613 59.2602ZM49.7656 44.0527V48.4207C49.4781 48.4886 49.2011 48.5954 48.9425 48.7381C48.6144 48.9126 48.2486 49.0039 47.877 49.0039C47.5054 49.0039 47.1396 48.9126 46.8116 48.7381C46.5422 48.5925 46.2549 48.483 45.957 48.4123V44.0527H49.7656ZM47.8613 57.7368C47.3586 57.7365 46.8763 57.5375 46.5195 57.1832C46.1628 56.8289 45.9606 56.3479 45.957 55.8452V50.0214C46.084 50.0475 46.0743 50.0751 46.1348 50.105C46.6666 50.3943 47.2647 50.5401 47.8701 50.528C48.4785 50.5398 49.0796 50.3941 49.6151 50.105C49.6632 50.0812 49.6385 50.059 49.7655 50.0377V55.845C49.7619 56.3478 49.5597 56.8288 49.2031 57.1831C48.8464 57.5375 48.3641 57.7365 47.8613 57.7368ZM44.6875 41.6406H50.9082V41.8671C50.9082 42.2649 50.5433 42.5293 50.1465 42.5293H45.4403C45.0431 42.5293 44.6879 42.2649 44.6879 41.8671L44.6875 41.6406Z" fill="#1AE5BE"/>
<path d="M47.802 35.7563C44.1138 35.7596 40.5777 37.2267 37.9704 39.8353C35.3632 42.4439 33.8979 45.9808 33.8966 49.669V49.6875C33.895 49.7806 33.912 49.8729 33.9465 49.9593C33.981 50.0457 34.0324 50.1243 34.0975 50.1907C34.1627 50.257 34.2405 50.3097 34.3263 50.3457C34.412 50.3817 34.5041 50.4003 34.5971 50.4004H34.6843C34.8775 50.4007 35.0631 50.3249 35.2008 50.1895C35.3386 50.0541 35.4176 49.8699 35.4207 49.6768V49.6694C35.4234 47.2202 36.1523 44.8269 37.5151 42.7919C38.878 40.757 40.8137 39.1718 43.0774 38.2369C45.3411 37.302 47.8312 37.0593 50.2328 37.5394C52.6344 38.0196 54.8398 39.2011 56.57 40.9346C58.3001 42.668 59.4775 44.8756 59.9531 47.2781C60.4288 49.6807 60.1814 52.1703 59.2422 54.4322C58.303 56.6942 56.7142 58.6268 54.6767 59.9859C52.6392 61.3449 50.2444 62.0693 47.7953 62.0674C42.641 62.0674 38.2103 58.8649 36.3455 54.397C36.2909 54.2662 36.1988 54.1544 36.0808 54.0758C35.9628 53.9971 35.8242 53.9551 35.6824 53.9551H35.5868C35.4694 53.9548 35.3536 53.9833 35.2498 54.0382C35.1459 54.0931 35.0571 54.1727 34.9912 54.27C34.9253 54.3672 34.8843 54.4791 34.8718 54.5959C34.8593 54.7128 34.8756 54.8308 34.9194 54.9398C35.8746 57.274 37.4461 59.3047 39.4661 60.8147C41.4861 62.3247 43.8785 63.2574 46.3875 63.5129C48.8965 63.7684 51.4278 63.3371 53.7107 62.2653C55.9936 61.1934 57.9422 59.5212 59.3482 57.4275C60.7542 55.3338 61.5648 52.8973 61.6931 50.3786C61.8215 47.8598 61.2628 45.3536 60.077 43.1278C58.8911 40.902 57.1225 39.0404 54.9604 37.742C52.7983 36.4436 50.324 35.7572 47.802 35.7563Z" fill="#1AE5BE"/>
</svg>
