<svg width="65" height="65" viewBox="0 0 65 65" fill="none" xmlns="http://www.w3.org/2000/svg">
<path d="M7.07151 51.6699H7.06123L2.78418 62.8418H6.59277L10.8557 51.6699H10.871L15.4998 39.6094H11.6912L7.07151 51.6699Z" fill="#D4E1F4"/>
<path d="M54.7829 39.3048C54.7309 39.156 54.634 39.0271 54.5056 38.9358C54.3772 38.8444 54.2237 38.7951 54.0661 38.7947L42.9324 38.7643L47.6379 32.5055C50.5271 28.6728 51.9481 24.0644 51.6391 19.5309C51.3312 14.7554 49.2978 10.2547 45.9175 6.86735C42.4065 3.36392 37.649 1.39636 32.689 1.39636C27.729 1.39636 22.9716 3.36392 19.4605 6.86735C16.0804 10.2543 14.0469 14.7546 13.739 19.5298C13.4414 23.9705 14.8602 28.5754 17.7394 32.5044L22.4664 38.7917L11.6905 38.7945C11.5363 38.7946 11.3859 38.8415 11.2589 38.9289C11.132 39.0164 11.0346 39.1402 10.9795 39.2842L2.073 62.5697C2.02886 62.685 2.01344 62.8094 2.02806 62.9321C2.04269 63.0547 2.08692 63.172 2.15695 63.2737C2.22698 63.3755 2.3207 63.4587 2.43004 63.5161C2.53938 63.5736 2.66105 63.6036 2.78457 63.6036H62.2154C62.3371 63.6036 62.457 63.5745 62.5651 63.5186C62.6731 63.4628 62.7663 63.3818 62.8367 63.2826C62.9071 63.1834 62.9527 63.0687 62.9697 62.9482C62.9867 62.8277 62.9745 62.705 62.9343 62.5901L54.7829 39.3048ZM56.1894 47.9328L45.9062 47.9545L44.6739 40.2921L53.5234 40.3161L56.1894 47.9328ZM15.259 19.6302C15.5428 15.2234 17.4191 11.0701 20.5381 7.94404C23.7634 4.72676 28.133 2.91998 32.6886 2.91998C37.2442 2.91998 41.6139 4.72676 44.8392 7.94404C47.9587 11.0706 49.835 15.2248 50.1183 19.6324C50.4027 23.8018 49.09 28.0477 46.4201 31.5886L32.6886 49.853L18.9627 31.596C16.3008 27.9638 14.9854 23.7149 15.259 19.6302ZM12.215 40.3175L23.6115 40.3145L32.0793 51.5783C32.1502 51.6728 32.2422 51.7494 32.3479 51.8021C32.4535 51.8549 32.57 51.8824 32.6881 51.8824C32.8062 51.8824 32.9227 51.8549 33.0284 51.8021C33.1341 51.7494 33.226 51.6728 33.297 51.5783L41.7881 40.2842L43.1294 40.2879L44.5045 48.8547C44.5326 49.0353 44.6234 49.2002 44.7611 49.3204C44.8987 49.4406 45.0744 49.5084 45.2571 49.5118H45.2588L56.7226 49.4714L59.0332 56.0658L32.4724 56.0702C32.3726 56.07 32.2737 56.0894 32.1814 56.1274C32.0892 56.1654 32.0052 56.2211 31.9345 56.2916C31.8638 56.362 31.8076 56.4456 31.7692 56.5378C31.7308 56.6299 31.7109 56.7287 31.7107 56.8285L31.7014 62.0802H22.2762L22.9577 51.6962C22.9643 51.5939 22.9496 51.4915 22.9144 51.3953C22.8792 51.2991 22.8243 51.2113 22.7533 51.1376C22.6814 51.0633 22.5949 51.0046 22.4993 50.9653C22.4037 50.926 22.301 50.9068 22.1976 50.909H22.1968L8.16852 50.9111L12.215 40.3175ZM7.58517 52.4225L21.3841 52.4089L20.7493 62.0802H3.89135L7.58517 52.4225ZM33.2249 62.0802L33.2552 57.5893L59.541 57.5809V57.3816L61.1418 62.0802H33.2249Z" fill="#007CA4"/>
<path d="M18.9781 3.36617C18.5144 3.74703 18.0604 4.15328 17.6284 4.57312C17.4835 4.71392 17.4004 4.90653 17.3975 5.10855C17.3946 5.31058 17.4721 5.50548 17.6129 5.65038C17.7537 5.79528 17.9463 5.8783 18.1484 5.8812C18.3504 5.88409 18.5453 5.80661 18.6902 5.6658C19.0919 5.27542 19.5144 4.89761 19.9456 4.5429C20.0236 4.47961 20.0883 4.40152 20.136 4.31313C20.1837 4.22473 20.2135 4.12777 20.2236 4.02783C20.2336 3.9279 20.2238 3.82695 20.1947 3.73081C20.1657 3.63467 20.1178 3.54524 20.0541 3.46765C19.9903 3.39006 19.9118 3.32586 19.823 3.27874C19.7343 3.23161 19.6372 3.20249 19.5372 3.19306C19.4372 3.18363 19.3363 3.19407 19.2404 3.22378C19.1444 3.25349 19.0553 3.30188 18.9781 3.36617Z" fill="#007CA4"/>
<path d="M16.5701 8.06645C16.6919 7.90527 16.7447 7.70231 16.7168 7.50221C16.689 7.30212 16.5828 7.12128 16.4216 6.99947C16.2604 6.87767 16.0575 6.82489 15.8574 6.85273C15.6573 6.88058 15.4764 6.98677 15.3546 7.14795C12.6841 10.6789 11.1092 14.9163 10.8256 19.3343C10.6772 21.6466 10.9084 23.9676 11.51 26.2051C11.5618 26.4004 11.689 26.5671 11.8637 26.6686C12.0385 26.7701 12.2463 26.7979 12.4416 26.7461C12.6369 26.6943 12.8036 26.5671 12.9051 26.3924C13.0065 26.2177 13.0344 26.0098 12.9826 25.8145C12.4235 23.737 12.2083 21.5819 12.3457 19.4349C12.61 15.3134 14.0789 11.3604 16.5701 8.06645Z" fill="#007CA4"/>
<path d="M34.0234 13.7109H30.0879C29.6673 13.7109 29.1992 13.925 29.1992 14.3457V18.7891H25.1367C24.7161 18.7891 24.248 19.0031 24.248 19.4238V22.9785C24.248 23.3992 24.7161 23.8672 25.1367 23.8672H29.1992V27.9297C29.1992 28.3504 29.6673 28.8184 30.0879 28.8184H34.0234C34.444 28.8184 34.6582 28.3504 34.6582 27.9297V23.8672H38.9746C39.3952 23.8672 39.6094 23.3992 39.6094 22.9785V19.4238C39.6094 19.0031 39.3952 18.7891 38.9746 18.7891H34.6582V14.3457C34.6582 13.925 34.444 13.7109 34.0234 13.7109ZM38.0859 20.3125V22.3438H34.0234C33.6028 22.3438 33.1348 22.5578 33.1348 22.9785V27.2949H30.7227V22.9785C30.7227 22.5578 30.5085 22.3438 30.0879 22.3438H25.7715V20.3125H30.0879C30.5085 20.3125 30.7227 19.8446 30.7227 19.4238V15.2344H33.1348V19.4238C33.1348 19.8446 33.6028 20.3125 34.0234 20.3125H38.0859Z" fill="#1AE5BE"/>
<path d="M32.5 6.69751C29.3669 6.69649 26.3235 7.74388 23.8547 9.67285C21.3858 11.6018 19.6334 14.3015 18.8765 17.3418C18.8496 17.4538 18.8485 17.5704 18.8732 17.6829C18.898 17.7955 18.9479 17.9009 19.0192 17.9913C19.0906 18.0818 19.1815 18.1548 19.2852 18.2051C19.3889 18.2553 19.5026 18.2813 19.6178 18.2812C19.7892 18.2805 19.9555 18.2221 20.0898 18.1156C20.2242 18.0091 20.3188 17.8606 20.3587 17.6938C21.0359 14.9868 22.5987 12.584 24.7988 10.8675C26.9988 9.15098 29.7096 8.21941 32.5 8.22095C39.3924 8.22095 44.9998 13.7984 44.9998 20.6538C44.9998 27.5093 39.3924 33.0869 32.5 33.0869C26.2361 33.0869 21.0343 28.4801 20.1377 22.494C20.1237 22.395 20.0903 22.2996 20.0394 22.2135C19.9886 22.1273 19.9213 22.052 19.8413 21.9919C19.7614 21.9318 19.6704 21.888 19.5735 21.863C19.4766 21.838 19.3758 21.8324 19.2767 21.8464C19.1777 21.8604 19.0824 21.8938 18.9962 21.9446C18.91 21.9954 18.8347 22.0628 18.7746 22.1427C18.7145 22.2227 18.6707 22.3137 18.6457 22.4105C18.6207 22.5074 18.6151 22.6083 18.6291 22.7073C19.6299 29.4328 25.4684 34.6103 32.5 34.6103C40.2325 34.6103 46.5232 28.3495 46.5232 20.6538C46.5232 12.9582 40.2325 6.69751 32.5 6.69751Z" fill="#1AE5BE"/>
</svg>
