<svg width="28" height="28" viewBox="0 0 28 28" fill="none" xmlns="http://www.w3.org/2000/svg">
<g clip-path="url(#clip0_1_592)">
<path d="M23.94 4.02383C21.28 1.4525 17.78 0 14.0525 0C3.35417 0 -3.3635 11.5908 1.97867 20.811L0 28L7.39083 26.0727C10.6108 27.8122 13.2487 27.6582 14.0595 27.7608C26.4647 27.7608 32.6398 12.7528 23.9225 4.06933L23.94 4.02383Z" fill="#ECEFF1"/>
<path d="M14.0783 25.3762L14.0713 25.375H14.0526C10.3403 25.375 7.96844 23.6168 7.73511 23.5153L3.36011 24.6528L4.53261 20.4003L4.25377 19.9628C3.09877 18.1242 2.48511 16.0067 2.48511 13.8262C2.48511 3.56767 15.0209 -1.56216 22.2753 5.68867C29.5121 12.8637 24.4313 25.3762 14.0783 25.3762Z" fill="#1FA181"/>
<path d="M20.4248 16.6915L20.4142 16.779C20.0631 16.604 18.3528 15.7675 18.0343 15.652C17.3191 15.3872 17.5209 15.61 16.1477 17.1827C15.9436 17.4102 15.7406 17.4277 15.3941 17.2702C15.0441 17.0952 13.9206 16.7277 12.5906 15.5377C11.5546 14.6102 10.8592 13.4727 10.6539 13.1227C10.3121 12.5324 11.0272 12.4484 11.6782 11.2164C11.7949 10.9714 11.7354 10.7789 11.6491 10.605C11.5616 10.43 10.8651 8.71503 10.5734 8.03137C10.2934 7.35003 10.0052 7.43637 9.78942 7.43637C9.11742 7.37803 8.62625 7.38737 8.19342 7.8377C6.31042 9.90737 6.78525 12.0424 8.39642 14.3127C11.5627 18.4567 13.2498 19.2197 16.3344 20.279C17.1674 20.5439 17.9269 20.5065 18.5278 20.4202C19.1974 20.314 20.5892 19.579 20.8797 18.7565C21.1772 17.934 21.1772 17.2515 21.0898 17.094C21.0034 16.9365 20.7748 16.849 20.4248 16.6915Z" fill="#FAFAFA"/>
</g>
<defs>
<clipPath id="clip0_1_592">
<rect width="28" height="28" fill="white"/>
</clipPath>
</defs>
</svg>
